<svg xmlns="http://www.w3.org/2000/svg" xmlns:xlink="http://www.w3.org/1999/xlink" width="49" height="49" viewBox="0 0 49 49"><defs><style>.a{fill:#fff;}.b{fill:none;stroke:#d10010;stroke-width:1.5px;}.c{filter:url(#a);}</style><filter id="a" x="0" y="0" width="49" height="49" filterUnits="userSpaceOnUse"><feOffset input="SourceAlpha"/><feGaussianBlur stdDeviation="2" result="b"/><feFlood flood-opacity="0.235"/><feComposite operator="in" in2="b"/><feComposite in="SourceGraphic"/></filter></defs><g transform="translate(6 6)"><g class="c" transform="matrix(1, 0, 0, 1, -6, -6)"><rect class="a" width="37" height="37" rx="18" transform="translate(6 6)"/></g><path class="b" d="M-6559.22-10991.179a2.782,2.782,0,0,1-2.782-2.779v-9.264a2.782,2.782,0,0,1,2.782-2.779h10.187a2.78,2.78,0,0,1,2.779,2.779v3.055l4.038-3.154a1.21,1.21,0,0,1,1.135-.16.88.88,0,0,1,.633.8v8.177a.7.7,0,0,1-.011.124v.119a.918.918,0,0,1-.563.848.921.921,0,0,1-1-.18l-.731-.7-3.5-2.788v3.128a2.78,2.78,0,0,1-2.779,2.779Z" transform="translate(6569.573 11016.694)"/></g></svg>