<svg xmlns="http://www.w3.org/2000/svg" xmlns:xlink="http://www.w3.org/1999/xlink" width="49" height="49" viewBox="0 0 49 49"><defs><style>.a,.d{fill:#d10010;}.a{opacity:0.999;}.b{fill:#fff;}.c{clip-path:url(#c);}.e{filter:url(#a);}</style><filter id="a" x="0" y="0" width="49" height="49" filterUnits="userSpaceOnUse"><feOffset input="SourceAlpha"/><feGaussianBlur stdDeviation="2" result="b"/><feFlood flood-opacity="0.235"/><feComposite operator="in" in2="b"/><feComposite in="SourceGraphic"/></filter><clipPath id="c"><rect class="a" width="24" height="20" transform="translate(0.001 0.001)"/></clipPath></defs><g transform="translate(-549.512 -216.777)"><g class="e" transform="matrix(1, 0, 0, 1, 549.51, 216.78)"><rect class="b" width="37" height="37" rx="18" transform="translate(6 6)"/></g><g transform="translate(562.511 231.777)"><g class="c" transform="translate(0)"><path class="d" d="M773.833,399.607a6.295,6.295,0,0,0-12.171-.007,6.2,6.2,0,0,0,.589,12.372h2.356a.775.775,0,1,0,0-1.55h-2.356a4.65,4.65,0,1,1-.028-9.3.813.813,0,0,0,.864-.662,4.713,4.713,0,0,1,9.314,0,.845.845,0,0,0,.842.662,4.65,4.65,0,1,1,0,9.3h-2.355a.775.775,0,1,0,0,1.55h2.355a6.2,6.2,0,0,0,.589-12.365Zm0,0" transform="translate(-755.641 -394.537)"/></g><path class="d" d="M872.221,496.2a.793.793,0,0,0,1.1-.01.767.767,0,0,0,.01-1.086l-3.926-3.875a.793.793,0,0,0-1.11,0l-3.926,3.875a.767.767,0,0,0,.01,1.086.793.793,0,0,0,1.1.01l2.586-2.552V503.4a.785.785,0,0,0,1.571,0v-9.753Zm0,0" transform="translate(-856.744 -484.417)"/></g></g></svg>