<svg xmlns="http://www.w3.org/2000/svg" xmlns:xlink="http://www.w3.org/1999/xlink" width="187" height="187" viewBox="0 0 187 187"><defs><style>.a{opacity:0.4;fill:url(#a);}.b{fill:url(#b);}.c{fill:#fff;stroke:#666;stroke-width:0.188px;}</style><linearGradient id="a" x1="0.5" x2="0.5" y2="1" gradientUnits="objectBoundingBox"><stop offset="0" stop-color="#830000"/><stop offset="1" stop-color="#680000"/></linearGradient><linearGradient id="b" x1="0.5" x2="0.5" y2="1" gradientUnits="objectBoundingBox"><stop offset="0" stop-color="#d50800"/><stop offset="1" stop-color="#530202"/></linearGradient></defs><g transform="translate(0.066 0.066)"><circle class="a" cx="93.5" cy="93.5" r="93.5" transform="translate(-0.066 -0.066)"/><circle class="b" cx="75.805" cy="75.805" r="75.805" transform="translate(17.934 17.629)"/><path class="c" d="M39.012,8.865V37.512a2.868,2.868,0,0,1-2.865,2.865H29.7a2.868,2.868,0,0,1-2.865-2.865V8.865A2.868,2.868,0,0,1,29.7,6h6.446A2.868,2.868,0,0,1,39.012,8.865ZM16.81,6H10.365A2.868,2.868,0,0,0,7.5,8.865V37.512a2.868,2.868,0,0,0,2.865,2.865H16.81a2.868,2.868,0,0,0,2.865-2.865V8.865A2.868,2.868,0,0,0,16.81,6Z" transform="translate(70.553 70.245)"/></g></svg>