<svg xmlns="http://www.w3.org/2000/svg" width="129" height="43" viewBox="0 0 129 43"><defs><style>.a{fill:#fff;}.b,.c{fill:#333;}.b{font-size:18px;font-family:Roboto-Medium, Roboto;font-weight:500;letter-spacing:0.018em;}.c{stroke:#333;}</style></defs><g transform="translate(-874 -917)"><g transform="translate(-358 41)"><path class="a" d="M21.5,0h86a21.5,21.5,0,0,1,0,43h-86a21.5,21.5,0,0,1,0-43Z" transform="translate(1232 876)"/><text class="b" transform="translate(1309 903.5)"><tspan x="-33.562" y="0">Resume</tspan></text></g><g transform="translate(-25.582 10.438)"><path class="c" d="M19.4,13.508a7.284,7.284,0,1,1-7.284-7.284h4.5L14.01,8.839l1.02,1.027L19.4,5.5l-4.37-4.37L14.01,2.152l2.615,2.615H12.116a8.741,8.741,0,1,0,8.741,8.741Z" transform="translate(914.207 915.375)"/></g></g></svg>