<svg xmlns="http://www.w3.org/2000/svg" xmlns:xlink="http://www.w3.org/1999/xlink" width="151.609" height="151.609" viewBox="0 0 151.609 151.609"><defs><style>.a{opacity:0.4;fill:url(#a);}.b{fill:url(#b);}.c,.d{fill:#fff;}.c{font-size:18px;font-family:Roboto-Medium, Roboto;font-weight:500;}</style><linearGradient id="a" x1="0.5" x2="0.5" y2="1" gradientUnits="objectBoundingBox"><stop offset="0" stop-color="#830000"/><stop offset="1" stop-color="#680000"/></linearGradient><linearGradient id="b" x1="0.5" x2="0.5" y2="1" gradientUnits="objectBoundingBox"><stop offset="0" stop-color="#d50800"/><stop offset="1" stop-color="#530202"/></linearGradient></defs><path class="a" d="M75.5,0A75.5,75.5,0,1,1,0,75.5,75.5,75.5,0,0,1,75.5,0Z" transform="translate(0 0.305)"/><circle class="b" cx="75.805" cy="75.805" r="75.805"/><text class="c" transform="translate(11 82.145)"><tspan x="14.439" y="19">Start Record</tspan></text><g transform="translate(59 51.373)"><path class="d" d="M702.873,1707.511l6.526,5.2a1.81,1.81,0,0,0,1.693.255,1.321,1.321,0,0,0,.952-1.191v-12.157a1.317,1.317,0,0,0-.941-1.188,1.813,1.813,0,0,0-1.688.239l-6.511,5.083a2.31,2.31,0,0,0-.031,3.758Z" transform="translate(-678.452 -1694.687)"/><path class="d" d="M703.281,1718.037H688.132A4.132,4.132,0,0,1,684,1713.9v-13.773a4.132,4.132,0,0,1,4.132-4.132h15.149a4.132,4.132,0,0,1,4.132,4.132V1713.9A4.132,4.132,0,0,1,703.281,1718.037Zm5.385-11.019a2.754,2.754,0,0,0,.84,1.915l5.743,5.509a1.377,1.377,0,0,0,2.328-.992v-6.432Z" transform="translate(-684 -1696)"/></g></svg>