<svg xmlns="http://www.w3.org/2000/svg" xmlns:xlink="http://www.w3.org/1999/xlink" width="162.845" height="66.679" viewBox="0 0 162.845 66.679"><defs><style>.a{fill:none;stroke:#c20219;stroke-miterlimit:10;stroke-width:1.5px;}.b{fill:url(#a);}.c{fill:#fff;}</style><linearGradient id="a" x1="0.018" y1="0.15" x2="0.659" y2="0.476" gradientUnits="objectBoundingBox"><stop offset="0" stop-color="#89071b"/><stop offset="1" stop-color="#e50019"/></linearGradient></defs><g transform="translate(0.75 0.75)"><path class="a" d="M314.865,147.993H206.684c-14.681,0-26.582,11.29-26.582,25.217h0c0,13.927,11.9,25.217,26.582,25.217h82.48a2.934,2.934,0,0,1,2.538,1.463l6.066,10.462a2.932,2.932,0,0,0,5.124-.088l5.5-10.286a2.935,2.935,0,0,1,2.587-1.551h3.885c14.681,0,26.582-11.29,26.582-25.217h0C341.447,159.283,329.546,147.993,314.865,147.993Z" transform="translate(-180.102 -147.993)"/><path class="b" d="M318.243,155.072H211.714c-14.457,0-26.177,11.118-26.177,24.832h0c0,13.714,11.72,24.832,26.177,24.832h81.22a2.888,2.888,0,0,1,2.5,1.441l5.974,10.3a2.887,2.887,0,0,0,5.046-.087l5.417-10.129a2.888,2.888,0,0,1,2.547-1.528h3.826c14.457,0,26.176-11.117,26.176-24.832h0C344.419,166.19,332.7,155.072,318.243,155.072Z" transform="translate(-183.172 -151.991)"/><g transform="translate(18.075 12.168)"><path class="c" d="M225.178,176.406l6.665,17.845,6.632-17.842a1.828,1.828,0,0,1,1.713-1.191h0a1.828,1.828,0,0,1,1.7,2.5l-7.642,19.448a2.586,2.586,0,0,1-2.406,1.64h0a2.586,2.586,0,0,1-2.4-1.637l-7.67-19.449a1.827,1.827,0,0,1,1.7-2.5h0A1.827,1.827,0,0,1,225.178,176.406Z" transform="translate(-221.637 -174.553)"/><path class="c" d="M277.9,173.691h0a1.827,1.827,0,0,1,1.827,1.827v17.466a2.44,2.44,0,0,0,.4,1.7,1.416,1.416,0,0,0,1,.366,5.567,5.567,0,0,0,1.245-.133l.012,0a.991.991,0,0,1,1.205.779l.176.954a.982.982,0,0,1-.673,1.12q-.493.149-1.069.272a9.589,9.589,0,0,1-1.96.232,3.977,3.977,0,0,1-2.923-1.049,3.911,3.911,0,0,1-1.063-2.915v-18.79A1.827,1.827,0,0,1,277.9,173.691Z" transform="translate(-250.99 -173.691)"/><path class="c" d="M305.316,207.023a9.174,9.174,0,0,1-3.687-.707,8.438,8.438,0,0,1-2.807-1.958,8.856,8.856,0,0,1-1.81-2.847,9.174,9.174,0,0,1-.631-3.407,9.3,9.3,0,0,1,.631-3.423,8.625,8.625,0,0,1,1.81-2.846,8.5,8.5,0,0,1,2.823-1.941,9.867,9.867,0,0,1,7.34,0,8.506,8.506,0,0,1,2.824,1.941,8.647,8.647,0,0,1,1.81,2.846,9.325,9.325,0,0,1,.631,3.423,9.194,9.194,0,0,1-.631,3.407,8.879,8.879,0,0,1-1.81,2.847,8.4,8.4,0,0,1-2.824,1.958A9.208,9.208,0,0,1,305.316,207.023Zm-5.182-8.886a6.174,6.174,0,0,0,.7,2.948,5.457,5.457,0,0,0,1.861,2.063,4.717,4.717,0,0,0,2.624.753,4.669,4.669,0,0,0,2.608-.77,5.508,5.508,0,0,0,1.877-2.1,6.543,6.543,0,0,0,0-5.878,5.544,5.544,0,0,0-1.877-2.08,4.672,4.672,0,0,0-2.608-.77,4.572,4.572,0,0,0-2.624.786,5.763,5.763,0,0,0-1.861,2.079A6.151,6.151,0,0,0,300.135,198.137Z" transform="translate(-261.752 -182.443)"/><path class="c" d="M350.422,207.023a7.24,7.24,0,0,1-3.222-.714,7.685,7.685,0,0,1-2.507-1.943,9.127,9.127,0,0,1-1.628-2.823,9.7,9.7,0,0,1-.581-3.355,10.037,10.037,0,0,1,.6-3.487,9.175,9.175,0,0,1,1.677-2.873,7.74,7.74,0,0,1,2.541-1.943,7.456,7.456,0,0,1,3.255-.7,6.813,6.813,0,0,1,3.67.98,8.269,8.269,0,0,1,2.607,2.574v-1.677a1.611,1.611,0,0,1,1.611-1.611h0a1.611,1.611,0,0,1,1.611,1.611v15.173a7.306,7.306,0,0,1-1.212,4.262,7.717,7.717,0,0,1-3.305,2.676,11.558,11.558,0,0,1-4.717.925,10.209,10.209,0,0,1-4.783-1,9.668,9.668,0,0,1-2.236-1.617,1.411,1.411,0,0,1,.016-2.044h0a1.423,1.423,0,0,1,1.943.017,6.509,6.509,0,0,0,1.688,1.12,7.927,7.927,0,0,0,3.371.731,7.211,7.211,0,0,0,2.774-.527,4.538,4.538,0,0,0,2.043-1.631,4.8,4.8,0,0,0,.764-2.791V203.7a6.532,6.532,0,0,1-2.558,2.441A7.094,7.094,0,0,1,350.422,207.023Zm1.2-2.956a4.56,4.56,0,0,0,1.594-.282,5.592,5.592,0,0,0,1.412-.764,5.478,5.478,0,0,0,1.113-1.1,3.97,3.97,0,0,0,.665-1.312v-4.551a5.958,5.958,0,0,0-1.229-1.976,5.866,5.866,0,0,0-1.794-1.312,4.758,4.758,0,0,0-2.027-.465,4.414,4.414,0,0,0-2.142.515,5.155,5.155,0,0,0-1.611,1.362,6.472,6.472,0,0,0-1.03,1.91,6.7,6.7,0,0,0-.366,2.192,5.884,5.884,0,0,0,.416,2.225,6.188,6.188,0,0,0,1.146,1.844,5.135,5.135,0,0,0,3.853,1.711Z" transform="translate(-286.504 -182.443)"/><path class="c" d="M396.811,207.023a7.24,7.24,0,0,1-3.222-.714,7.684,7.684,0,0,1-2.507-1.943,9.128,9.128,0,0,1-1.628-2.823,9.714,9.714,0,0,1-.581-3.355,10.034,10.034,0,0,1,.6-3.487,9.175,9.175,0,0,1,1.677-2.873,7.739,7.739,0,0,1,2.541-1.943,7.456,7.456,0,0,1,3.255-.7,6.815,6.815,0,0,1,3.671.98,8.268,8.268,0,0,1,2.607,2.574v-1.677a1.611,1.611,0,0,1,1.611-1.611h0a1.611,1.611,0,0,1,1.611,1.611v15.173a7.306,7.306,0,0,1-1.212,4.262,7.717,7.717,0,0,1-3.305,2.676,11.559,11.559,0,0,1-4.717.925,10.209,10.209,0,0,1-4.783-1,9.669,9.669,0,0,1-2.236-1.617,1.412,1.412,0,0,1,.017-2.044h0a1.423,1.423,0,0,1,1.943.017,6.507,6.507,0,0,0,1.688,1.12,7.927,7.927,0,0,0,3.371.731,7.211,7.211,0,0,0,2.774-.527,4.536,4.536,0,0,0,2.043-1.631,4.793,4.793,0,0,0,.764-2.791V203.7a6.532,6.532,0,0,1-2.558,2.441A7.094,7.094,0,0,1,396.811,207.023Zm1.2-2.956a4.56,4.56,0,0,0,1.594-.282,5.594,5.594,0,0,0,1.412-.764,5.494,5.494,0,0,0,1.113-1.1,3.978,3.978,0,0,0,.664-1.312v-4.551a5.959,5.959,0,0,0-1.229-1.976,5.867,5.867,0,0,0-1.794-1.312,4.756,4.756,0,0,0-2.026-.465,4.413,4.413,0,0,0-2.142.515,5.152,5.152,0,0,0-1.611,1.362,6.472,6.472,0,0,0-1.03,1.91,6.7,6.7,0,0,0-.365,2.192,5.884,5.884,0,0,0,.415,2.225,6.2,6.2,0,0,0,1.146,1.844,5.135,5.135,0,0,0,3.853,1.711Z" transform="translate(-311.404 -182.443)"/><path class="c" d="M443.272,207.023a9.187,9.187,0,0,1-3.67-.709,8.69,8.69,0,0,1-2.84-1.945,8.784,8.784,0,0,1-1.843-2.835,9.326,9.326,0,0,1,.481-7.864,8.76,8.76,0,0,1,3.156-3.252,8.962,8.962,0,0,1,4.75-1.232,8.508,8.508,0,0,1,7.773,4.473,8.852,8.852,0,0,1,1.1,4.309c0,.263-.012.51-.033.74v.007a.632.632,0,0,1-.63.569H438.158a5.3,5.3,0,0,0,2.757,4.41,5.083,5.083,0,0,0,2.491.64,5.614,5.614,0,0,0,2.773-.731,4.209,4.209,0,0,0,1.275-1.051,1.535,1.535,0,0,1,1.625-.553h0a1.5,1.5,0,0,1,.662,2.5q-.178.179-.373.352a8.532,8.532,0,0,1-2.707,1.594A9.641,9.641,0,0,1,443.272,207.023Zm-5.215-10.164h10.5a5.224,5.224,0,0,0-.847-2.589,5.387,5.387,0,0,0-1.893-1.758,5.15,5.15,0,0,0-2.541-.636,5.082,5.082,0,0,0-2.507.636,5.242,5.242,0,0,0-1.877,1.758A5.319,5.319,0,0,0,438.058,196.859Z" transform="translate(-334.951 -182.443)"/><path class="c" d="M491.257,191.592a.888.888,0,0,1-.8.885,7.511,7.511,0,0,0-2.974.918,5.246,5.246,0,0,0-2.342,2.624v8.8a1.827,1.827,0,0,1-1.827,1.827h0a1.827,1.827,0,0,1-1.827-1.827V191.1a1.694,1.694,0,0,1,1.694-1.694h0a1.694,1.694,0,0,1,1.694,1.694v2.06a7.877,7.877,0,0,1,2.358-2.873,5.74,5.74,0,0,1,3.047-1.176c.028,0,.055,0,.083,0h0a.894.894,0,0,1,.889.894Z" transform="translate(-361.622 -182.4)"/></g></g></svg>