<svg xmlns="http://www.w3.org/2000/svg" xmlns:xlink="http://www.w3.org/1999/xlink" width="48" height="48" viewBox="0 0 48 48"><defs><style>.a{fill:#e5293a;}.b,.d{clip-path:url(#a);}.c{fill:none;}.d,.e{opacity:0;}.e{clip-path:url(#c);}</style><clipPath id="a"><rect class="a" width="48" height="48" transform="translate(382 164)"/></clipPath><clipPath id="c"><rect class="a" width="32" height="32" transform="translate(390 172)"/></clipPath></defs><g class="b" transform="translate(-382 -164)"><g transform="translate(382 164)"><rect class="c" width="48" height="48"/><path class="a" d="M43.559,21.439,16.564,4.942A3,3,0,0,0,12,7.5v33a3,3,0,0,0,4.564,2.559l26.994-16.5a3,3,0,0,0,0-5.121Z"/></g></g><g class="d" transform="translate(-382 -164)"><g transform="translate(382 164)"><rect class="c" width="48" height="48"/><path class="a" d="M40.5,9V39a3,3,0,0,1-3,3H30.75a3,3,0,0,1-3-3V9a3,3,0,0,1,3-3H37.5a3,3,0,0,1,3,3ZM17.25,6H10.5a3,3,0,0,0-3,3V39a3,3,0,0,0,3,3h6.75a3,3,0,0,0,3-3V9a3,3,0,0,0-3-3Z"/></g></g><g class="e" transform="translate(-382 -164)"><g transform="translate(390 172)"><rect class="c" width="32" height="32"/><path class="a" d="M16.617,28.924A1,1,0,0,1,16,28V23H13a1,1,0,0,1-1-1V10a1,1,0,0,1,1-1h3V4a1,1,0,0,1,1.707-.707l12,12a1,1,0,0,1,0,1.414l-12,12A1,1,0,0,1,16.617,28.924ZM6,22V10a1,1,0,0,0-2,0V22a1,1,0,0,0,2,0Zm4,0V10a1,1,0,0,0-2,0V22a1,1,0,0,0,2,0Z"/></g></g><g class="e" transform="translate(-382 -164)"><g transform="translate(390 172)"><rect class="c" width="32" height="32"/><path class="a" d="M14.293,28.707l-12-12a1,1,0,0,1,0-1.414l12-12A1,1,0,0,1,16,4V9h3a1,1,0,0,1,1,1V22a1,1,0,0,1-1,1H16v5a1,1,0,0,1-1.707.707ZM27,23a1,1,0,0,0,1-1V10a1,1,0,0,0-2,0V22a1,1,0,0,0,1,1Zm-4,0a1,1,0,0,0,1-1V10a1,1,0,0,0-2,0V22a1,1,0,0,0,1,1Z"/></g></g></svg>