<svg xmlns="http://www.w3.org/2000/svg" xmlns:xlink="http://www.w3.org/1999/xlink" width="120" height="117" viewBox="0 0 120 117"><defs><style>.a,.e{fill:#e5293a;}.a{opacity:0.999;}.b{isolation:isolate;}.c{opacity:0.456;}.d{clip-path:url(#a);}.f,.h{fill:none;}.f{stroke:#e5293a;stroke-width:3px;stroke-dasharray:10 15;}.g{stroke:none;}</style><clipPath id="a"><rect class="a" width="67" height="55" transform="translate(0.273 -0.353)"/></clipPath></defs><g transform="translate(-1443 -489)"><g class="b" transform="translate(1471.727 509.352)"><g transform="translate(0 0)"><g transform="translate(0 0)"><g class="c" transform="translate(0 0)"><g transform="translate(0 0)"><g class="d"><path class="e" d="M805.842,408.008a17.572,17.572,0,0,0-33.977-.019,17.3,17.3,0,0,0,1.644,34.537h6.576a2.163,2.163,0,1,0,0-4.327h-6.576a12.981,12.981,0,1,1-.077-25.96,2.27,2.27,0,0,0,2.412-1.847,13.158,13.158,0,0,1,26,0,2.36,2.36,0,0,0,2.351,1.847,12.981,12.981,0,1,1,0,25.96h-6.575a2.163,2.163,0,1,0,0,4.327H804.2a17.3,17.3,0,0,0,1.645-34.518Zm0,0" transform="translate(-754.786 -394.208)"/></g></g><path class="e" d="M886.684,505.512a2.213,2.213,0,0,0,3.073-.027,2.142,2.142,0,0,0,.027-3.032l-10.96-10.817a2.213,2.213,0,0,0-3.1,0l-10.961,10.817a2.143,2.143,0,0,0,.027,3.032,2.213,2.213,0,0,0,3.072.027l7.218-7.124v27.228a2.193,2.193,0,0,0,4.385,0V498.388Zm0,0" transform="translate(-843.206 -472.971)"/></g></g></g></g><g class="f" transform="translate(1443 489)"><rect class="g" width="120" height="117" rx="2"/><rect class="h" x="1.5" y="1.5" width="117" height="114" rx="0.5"/></g></g></svg>