<svg xmlns="http://www.w3.org/2000/svg" xmlns:xlink="http://www.w3.org/1999/xlink" width="229.425" height="195.436" viewBox="0 0 229.425 195.436"><defs><style>.a{fill:#d10010;}.b{opacity:0.712;}.c{clip-path:url(#a);}</style><clipPath id="a"><rect class="a" width="229.425" height="195.436"/></clipPath></defs><g class="b"><g transform="translate(0 0)"><g transform="translate(0 0)"><g class="c"><path class="a" d="M926.894,440.373a60.024,60.024,0,0,0-116.442-.066,60.1,60.1,0,0,0,5.634,119.932h22.536a7.512,7.512,0,1,0,0-15.024H816.086a45.074,45.074,0,0,1-.264-90.148,7.8,7.8,0,0,0,8.266-6.414,45.006,45.006,0,0,1,89.111,0,8.108,8.108,0,0,0,8.057,6.414,45.074,45.074,0,1,1,0,90.148H898.723a7.512,7.512,0,1,0,0,15.024h22.534a60.1,60.1,0,0,0,5.637-119.866Zm0,0" transform="translate(-752.48 -390.714)"/></g><path class="a" d="M941.379,541.387A7.512,7.512,0,0,0,952,530.765L914.44,493.2a7.514,7.514,0,0,0-10.623,0l-37.56,37.563a7.511,7.511,0,0,0,10.62,10.622l24.74-24.737V611.2a7.513,7.513,0,1,0,15.025,0V516.65Zm0,0" transform="translate(-792.938 -426.648)"/></g></g></g></svg>