<svg xmlns="http://www.w3.org/2000/svg" xmlns:xlink="http://www.w3.org/1999/xlink" width="73.47" height="73.47" viewBox="0 0 73.47 73.47"><defs><style>.a,.e{fill:#fff;stroke:#fff;stroke-width:0.3px;}.a{opacity:0.999;}.b{fill:#54c7fa;}.c,.g{fill:none;}.c{stroke:#dedede;}.d{clip-path:url(#a);}.f{stroke:none;}</style><clipPath id="a"><rect class="a" width="33.072" height="27.149"/></clipPath></defs><circle class="b" cx="28.092" cy="28.092" r="28.092" transform="translate(8.644 8.644)"/><g class="c" transform="translate(0 0)"><circle class="f" cx="36.735" cy="36.735" r="36.735"/><circle class="g" cx="36.735" cy="36.735" r="36.235"/></g><g transform="translate(20.199 22.309)"><g transform="translate(0 0)"><g transform="translate(0 0)"><g class="d"><path class="e" d="M780.585,401.379a8.674,8.674,0,0,0-16.771-.009,8.538,8.538,0,0,0,.812,17.048h3.246a1.068,1.068,0,1,0,0-2.136h-3.246a6.408,6.408,0,1,1-.038-12.814,1.121,1.121,0,0,0,1.191-.912,6.495,6.495,0,0,1,12.835,0,1.165,1.165,0,0,0,1.161.912,6.408,6.408,0,1,1,0,12.814h-3.246a1.068,1.068,0,1,0,0,2.136h3.246a8.537,8.537,0,0,0,.812-17.039Zm0,0" transform="translate(-755.518 -394.393)"/></g><path class="e" d="M875.272,498.165a1.092,1.092,0,0,0,1.517-.013,1.057,1.057,0,0,0,.013-1.5l-5.41-5.339a1.092,1.092,0,0,0-1.53,0l-5.41,5.339a1.058,1.058,0,0,0,.013,1.5,1.092,1.092,0,0,0,1.516.013l3.563-3.516v13.44a1.082,1.082,0,0,0,2.164,0v-13.44Zm0,0" transform="translate(-853.946 -480.305)"/></g></g></g></svg>