<svg xmlns="http://www.w3.org/2000/svg" width="187" height="50" viewBox="0 0 187 50"><defs><style>.a{fill:#b5000e;}.b{fill:#f1f2f6;}.c{fill:#fff;font-size:18px;font-family:Roboto-Medium, Roboto;font-weight:500;letter-spacing:0.018em;}</style></defs><rect class="a" width="187" height="50" rx="2"/><path class="b" d="M15.237,64H2.166A2.166,2.166,0,0,0,0,66.166V79.237A2.166,2.166,0,0,0,2.166,81.4H15.237A2.166,2.166,0,0,0,17.4,79.237V66.166A2.166,2.166,0,0,0,15.237,64Zm8.584,1.709-4.967,3.426v7.134l4.967,3.422a1.453,1.453,0,0,0,2.284-1.169V66.878A1.454,1.454,0,0,0,23.821,65.709Z" transform="translate(21.197 -46.535)"/><text class="c" transform="translate(111 33)"><tspan x="-52.218" y="0">Start Record</tspan></text></svg>