<svg xmlns="http://www.w3.org/2000/svg" width="126" height="49" viewBox="0 0 126 49"><defs><style>.a{fill:#fff;stroke:#969698;}.b,.c{fill:#969698;stroke:#666;}.b{stroke-width:0.1px;font-size:18px;font-family:Roboto-Medium, Roboto;font-weight:500;letter-spacing:0.018em;}.c{stroke-width:0.188px;}.d{stroke:none;}.e{fill:none;}</style></defs><g transform="translate(-514 -74)"><g class="a" transform="translate(514 74)"><rect class="d" width="126" height="49" rx="2"/><rect class="e" x="0.5" y="0.5" width="125" height="48" rx="1.5"/></g><text class="b" transform="translate(585 105.5)"><tspan x="-25.697" y="0">Pause</tspan></text><path class="c" d="M21.458,7.269V19.958a1.27,1.27,0,0,1-1.269,1.269H17.334a1.27,1.27,0,0,1-1.269-1.269V7.269A1.27,1.27,0,0,1,17.334,6h2.855A1.27,1.27,0,0,1,21.458,7.269ZM11.624,6H8.769A1.27,1.27,0,0,0,7.5,7.269V19.958a1.27,1.27,0,0,0,1.269,1.269h2.855a1.27,1.27,0,0,0,1.269-1.269V7.269A1.27,1.27,0,0,0,11.624,6Z" transform="translate(531.521 84.886)"/></g></svg>