<svg xmlns="http://www.w3.org/2000/svg" xmlns:xlink="http://www.w3.org/1999/xlink" width="24" height="20.259" viewBox="0 0 24 20.259"><defs><style>.a,.c{fill:#d10010;}.a{opacity:0.999;}.b{clip-path:url(#a);}.d{fill:#fff;stroke:#fff;}</style><clipPath id="a"><rect class="a" width="24" height="20" transform="translate(0.001 0.001)"/></clipPath></defs><g transform="translate(-549.512 -235.778)"><g transform="translate(549.511 235.777)"><g class="b" transform="translate(0)"><path class="c" d="M773.833,399.607a6.295,6.295,0,0,0-12.171-.007,6.2,6.2,0,0,0,.589,12.372h10.993a6.2,6.2,0,0,0,.589-12.365Zm0,0" transform="translate(-755.641 -394.537)"/></g><path class="d" d="M872.221,496.2a.793.793,0,0,0,1.1-.01.767.767,0,0,0,.01-1.086l-3.926-3.875a.793.793,0,0,0-1.11,0l-3.926,3.875a.767.767,0,0,0,.01,1.086.793.793,0,0,0,1.1.01l2.586-2.552V503.4a.785.785,0,0,0,1.571,0v-9.753Zm0,0" transform="translate(-856.744 -484.417)"/></g></g></svg>