<svg xmlns="http://www.w3.org/2000/svg" xmlns:xlink="http://www.w3.org/1999/xlink" width="279.266" height="188.542" viewBox="0 0 279.266 188.542"><defs><style>.a{fill:url(#a);}.b{fill:url(#b);}.c,.f,.i,.l{fill:none;stroke:#fff;stroke-miterlimit:10;opacity:0.7;}.c{stroke-width:0.906px;}.ad,.ai,.aj,.d,.g,.j,.m,.o,.q,.t,.u,.v,.y,.z{mix-blend-mode:multiply;isolation:isolate;}.d{fill:url(#c);}.e{fill:url(#d);}.f{stroke-width:1.439px;}.g{fill:url(#e);}.h{fill:url(#f);}.i{stroke-width:0.962px;}.j{fill:url(#g);}.k{fill:url(#h);}.l{stroke-width:1.578px;}.m{fill:url(#i);}.n{fill:url(#j);}.o{fill:url(#k);}.p{fill:url(#l);}.q{fill:url(#m);}.r{fill:url(#n);}.s{fill:url(#o);}.t{fill:url(#p);}.u{fill:url(#q);}.v{fill:url(#r);}.w{fill:url(#s);}.x{fill:url(#t);}.y{fill:url(#u);}.z{fill:url(#v);}.aa,.ac,.af{opacity:0.6;}.aa{fill:url(#w);}.ab{fill:url(#x);}.ac{fill:url(#y);}.ae{fill:url(#z);}.ag{fill:url(#aa);}.ah{fill:url(#ab);}.ai{fill:url(#ac);}.aj{fill:url(#ad);}</style><radialGradient id="a" cx="0.465" cy="0.593" fx="0.3874123990535736" fy="0.663469135761261" r="0.868" gradientTransform="translate(0.151 0.125) scale(0.675 0.789)" gradientUnits="objectBoundingBox"><stop offset="0" stop-color="#de9999"/><stop offset="0.198" stop-color="#e1a5a5"/><stop offset="0.56" stop-color="#ebc6c6"/><stop offset="0.931" stop-color="#f8eeee"/><stop offset="1" stop-color="#f8eeee"/></radialGradient><linearGradient id="b" x1="35.023" y1="-3.37" x2="35.72" y2="-2.187" gradientUnits="objectBoundingBox"><stop offset="0" stop-color="#b52929"/><stop offset="0.168" stop-color="#d9baba"/><stop offset="0.681" stop-color="red"/><stop offset="0.999" stop-color="#c79a9a"/><stop offset="1" stop-color="#9ac7b0"/></linearGradient><linearGradient id="c" x1="0.121" y1="0.757" x2="0.72" y2="0.332" gradientUnits="objectBoundingBox"><stop offset="0" stop-color="#f22424"/><stop offset="0.176" stop-color="#c79a9a"/><stop offset="0.269" stop-color="#c99e9e" stop-opacity="0.902"/><stop offset="0.457" stop-color="#cfa8a8" stop-opacity="0.651"/><stop offset="0.723" stop-color="#d9b9b9" stop-opacity="0.247"/><stop offset="0.875" stop-color="#dfc4c4" stop-opacity="0"/><stop offset="1" stop-color="#dfc4c4" stop-opacity="0"/></linearGradient><linearGradient id="d" x1="-2.252" y1="-3.817" x2="-2.342" y2="-3.104" gradientUnits="objectBoundingBox"><stop offset="0" stop-color="#c4dfcc"/><stop offset="0.168" stop-color="#bad9c5"/><stop offset="0.681" stop-color="#a2ccb5"/><stop offset="0.999" stop-color="#9ac7b0"/></linearGradient><linearGradient id="e" x1="33.337" y1="1.621" x2="33.952" y2="1.027" gradientUnits="objectBoundingBox"><stop offset="0" stop-color="#f82d2d"/><stop offset="0.345" stop-color="#d1abab" stop-opacity="0.58"/><stop offset="0.709" stop-color="#dbbdbd" stop-opacity="0.165"/><stop offset="0.875" stop-color="#dfc4c4" stop-opacity="0"/><stop offset="1" stop-color="#dfc4c4" stop-opacity="0"/></linearGradient><linearGradient id="f" x1="0.679" y1="29.938" x2="0.609" y2="30.919" gradientUnits="objectBoundingBox"><stop offset="0" stop-color="#c13535"/><stop offset="0.168" stop-color="#d9baba"/><stop offset="0.681" stop-color="#cca2a2"/><stop offset="0.999" stop-color="#c79a9a"/><stop offset="1" stop-color="#c79a9a"/></linearGradient><linearGradient id="g" x1="0.236" y1="0.451" x2="0.709" y2="0.614" gradientUnits="objectBoundingBox"><stop offset="0" stop-color="#c79a9a"/><stop offset="0.345" stop-color="#d1abab" stop-opacity="0.58"/><stop offset="0.709" stop-color="#dbbdbd" stop-opacity="0.165"/><stop offset="0.875" stop-color="#dfc4c4" stop-opacity="0"/><stop offset="1" stop-color="#ff6060" stop-opacity="0"/></linearGradient><linearGradient id="h" x1="-3.868" y1="-2.495" x2="-4.102" y2="-1.876" xlink:href="#d"/><linearGradient id="i" x1="32.737" y1="3.002" x2="33.348" y2="1.999" gradientUnits="objectBoundingBox"><stop offset="0" stop-color="#811"/><stop offset="0.345" stop-color="#d1abab" stop-opacity="0.58"/><stop offset="0.709" stop-color="#dbbdbd" stop-opacity="0.165"/><stop offset="0.875" stop-color="#dfc4c4" stop-opacity="0"/><stop offset="1" stop-color="#dfc4c4" stop-opacity="0"/></linearGradient><linearGradient id="j" x1="0.242" y1="0.633" x2="1.319" y2="0.077" gradientUnits="objectBoundingBox"><stop offset="0.009" stop-color="#cbbeb0"/><stop offset="0.393" stop-color="#d0c4b7"/><stop offset="0.964" stop-color="#ddd4cb"/><stop offset="1" stop-color="#dfd6cd"/></linearGradient><radialGradient id="k" cx="0.5" cy="0.51" r="0.5" gradientTransform="translate(0)" gradientUnits="objectBoundingBox"><stop offset="0.334" stop-color="#997d7b"/><stop offset="0.458" stop-color="#9a7e7c" stop-opacity="0.984"/><stop offset="0.532" stop-color="#9d8380" stop-opacity="0.929"/><stop offset="0.592" stop-color="#a48b88" stop-opacity="0.835"/><stop offset="0.645" stop-color="#ad9793" stop-opacity="0.706"/><stop offset="0.693" stop-color="#b9a6a1" stop-opacity="0.533"/><stop offset="0.738" stop-color="#c8b9b2" stop-opacity="0.325"/><stop offset="0.78" stop-color="#d9cec6" stop-opacity="0.082"/><stop offset="0.792" stop-color="#dfd6cd" stop-opacity="0"/></radialGradient><linearGradient id="l" x1="0.358" y1="-0.087" x2="0.602" y2="0.923" gradientUnits="objectBoundingBox"><stop offset="0.009" stop-color="#3b3248"/><stop offset="0.427" stop-color="#332b42"/><stop offset="0.983" stop-color="#221c35"/></linearGradient><radialGradient id="m" cx="0.5" cy="0.5" r="0.5" gradientUnits="objectBoundingBox"><stop offset="0.017" stop-color="#221c35"/><stop offset="0.387" stop-color="#231d35" stop-opacity="0.953"/><stop offset="0.609" stop-color="#272038" stop-opacity="0.796"/><stop offset="0.791" stop-color="#2d263e" stop-opacity="0.525"/><stop offset="0.951" stop-color="#372e45" stop-opacity="0.149"/><stop offset="1" stop-color="#3b3248" stop-opacity="0"/></radialGradient><linearGradient id="n" x1="0.586" y1="0.806" x2="0.329" y2="-0.114" gradientUnits="objectBoundingBox"><stop offset="0.009" stop-color="#ded6cb"/><stop offset="0.297" stop-color="#e2dbd2"/><stop offset="0.725" stop-color="#efebe6"/><stop offset="0.984" stop-color="#faf7f6"/></linearGradient><linearGradient id="o" x1="0" y1="0.5" x2="1" y2="0.5" xlink:href="#l"/><radialGradient id="p" cx="0.677" cy="0.437" fx="0.5086073279380798" r="0.59" gradientTransform="translate(0.021 0.283) scale(0.969 0.351)" gradientUnits="objectBoundingBox"><stop offset="0.008" stop-color="#babbbb"/><stop offset="0.225" stop-color="#c5c4c2" stop-opacity="0.749"/><stop offset="0.599" stop-color="#d7d3cf" stop-opacity="0.349"/><stop offset="0.866" stop-color="#e3ddd7" stop-opacity="0.098"/><stop offset="0.999" stop-color="#e8e1db" stop-opacity="0"/></radialGradient><radialGradient id="q" cx="0.346" cy="0.678" fx="0.06942180544137955" fy="0.5981724858283997" r="0.59" gradientTransform="matrix(0.009, -1, 0.34, 0.003, 0.113, 1.021)" xlink:href="#p"/><radialGradient id="r" cx="0.935" cy="0.56" fx="0.9118440747261047" fy="0.5911575555801392" r="0.499" gradientTransform="translate(0.016) scale(0.969 1)" xlink:href="#p"/><linearGradient id="s" x1="-0.339" y1="-0.302" x2="1.098" y2="1.071" gradientUnits="objectBoundingBox"><stop offset="0.009" stop-color="#3b3248"/><stop offset="0.222" stop-color="#342c43"/><stop offset="0.983" stop-color="#221c35"/></linearGradient><linearGradient id="t" x1="-0.121" y1="-1.311" x2="0.699" y2="1.081" gradientUnits="objectBoundingBox"><stop offset="0.001" stop-color="#81819c"/><stop offset="1" stop-color="#6f5f77"/></linearGradient><linearGradient id="u" x1="0.5" y1="1.023" x2="0.5" y2="0.916" gradientUnits="objectBoundingBox"><stop offset="0.017" stop-color="#221c35"/><stop offset="0.071" stop-color="#261f38" stop-opacity="0.831"/><stop offset="0.223" stop-color="#2f273f" stop-opacity="0.463"/><stop offset="0.399" stop-color="#362d44" stop-opacity="0.2"/><stop offset="0.616" stop-color="#393047" stop-opacity="0.047"/><stop offset="1" stop-color="#3b3248" stop-opacity="0"/></linearGradient><linearGradient id="v" x1="0.5" y1="9.78" x2="0.5" y2="9.673" xlink:href="#u"/><linearGradient id="w" x1="-6.571" y1="-0.949" x2="1.519" y2="0.696" gradientUnits="objectBoundingBox"><stop offset="0" stop-color="#6f5f77"/><stop offset="1" stop-color="#332a3f"/></linearGradient><linearGradient id="x" x1="0.045" y1="-0.407" x2="0.754" y2="1.006" xlink:href="#w"/><linearGradient id="y" x1="-1.512" y1="0.102" x2="6.577" y2="1.747" xlink:href="#w"/><radialGradient id="z" cx="0.488" cy="0.486" r="0.493" gradientTransform="translate(0.004) scale(0.992 1)" gradientUnits="objectBoundingBox"><stop offset="0.017" stop-color="#221c35"/><stop offset="0.031" stop-color="#221c35" stop-opacity="0.976"/><stop offset="0.416" stop-color="#2f283f" stop-opacity="0.443"/><stop offset="0.752" stop-color="#382f45" stop-opacity="0.118"/><stop offset="1" stop-color="#3b3248" stop-opacity="0"/></radialGradient><linearGradient id="aa" x1="-0.261" y1="-0.835" x2="0.98" y2="1.343" xlink:href="#w"/><linearGradient id="ab" x1="-0.261" y1="-0.835" x2="0.98" y2="1.343" xlink:href="#t"/><radialGradient id="ac" cx="0.836" cy="0.119" fx="0.5983514189720154" fy="0.403084933757782" r="0.804" gradientTransform="translate(-0.018) scale(1.036 1)" gradientUnits="objectBoundingBox"><stop offset="0.008" stop-color="#babbbb"/><stop offset="0.117" stop-color="#bcbdbc" stop-opacity="0.941"/><stop offset="0.31" stop-color="#c4c3c1" stop-opacity="0.78"/><stop offset="0.563" stop-color="#cfcdca" stop-opacity="0.525"/><stop offset="0.864" stop-color="#e0dad5" stop-opacity="0.173"/><stop offset="0.999" stop-color="#e8e1db" stop-opacity="0"/></radialGradient><radialGradient id="ad" cx="0.93" cy="0.096" fx="0.6819436550140381" fy="0.38914501667022705" r="0.828" gradientTransform="translate(-0.024) scale(1.047 1)" xlink:href="#ac"/></defs><g transform="translate(-106.401 -234.268)"><path class="a" d="M384.652,401.291c6.512-25.351-20.126-37.413-28.208-52.28-15.975-29.382.533-42.811-8.637-66.2-14.327-36.547-82.7-57.736-121.213-44.648-42.426,14.419-23.566,62.985-80.23,86.264-13.808,5.672-26.66,7.366-34.378,19.9-10.333,16.784-5.761,43.735,9.047,60.916q.395.458.794.9a51.09,51.09,0,0,0,38.043,16.667l186-.135C364.53,422.675,380.465,417.593,384.652,401.291Z" transform="translate(0 0)"/><g transform="translate(279.745 277.798)"><path class="b" d="M601.8,434.679c8.8-1.64,15.8-3.27,17.589-4.475,11.719-7.909,21.739-20.912,18.762-31.07-.869-2.974-1.961-2.817-2.256-5.421-.96-8.552,11.911-14.459,12.238-23.818.147-4.133-.925-7.548-3.391-9.775-7.985-7.2-25.849-.875-29.241,7.171-2.273,5.388.551,14.461-2.486,18.6a14.526,14.526,0,0,1-1.99,2.221c-2.259,1.878-6.252,2.069-9.031,5.728-6.175,8.123-6.438,19.2-6.967,22.809a.01.01,0,0,1,0,.008C595.018,417,594.768,427.6,601.8,434.679Z" transform="translate(-595.023 -356.969)"/><path class="c" d="M657.738,396.787A163.463,163.463,0,0,0,634.9,448.138a28.475,28.475,0,0,1,9.875-15.322,26.373,26.373,0,0,1,6.537-3.676" transform="translate(-620.751 -382.661)"/><path class="d" d="M601.8,434.679c8.8-1.64,15.8-3.27,17.589-4.475,11.719-7.909,21.739-20.912,18.762-31.07-.869-2.974-1.961-2.817-2.256-5.421-.96-8.552,11.911-14.459,12.238-23.818.147-4.133-.925-7.548-3.391-9.775-7.985-7.2-25.849-.875-29.241,7.171-2.273,5.388.551,14.461-2.486,18.6a14.526,14.526,0,0,1-1.99,2.221c-2.259,1.878-6.252,2.069-9.031,5.728-6.175,8.123-6.438,19.2-6.967,22.809a.01.01,0,0,1,0,.008C595.018,417,594.768,427.6,601.8,434.679Z" transform="translate(-595.023 -356.969)"/></g><g transform="translate(121.191 300.514)"><g transform="translate(0 0)"><path class="e" d="M224.641,517.434c2.1-1.763,2.218-5.115,2.446-11.818.288-8.461-9.491-42.513-21.347-49.953-6.839-4.291-10.833.236-15.543-4.186-7.067-6.635-3.391-13.893-11.649-24.774-1.239-1.633-5.338-5.372-10.373-5.684-9.924-.614-22.474,16.067-19.69,28.093,2.587,11.175,17.674,15.133,16.4,25.027-.369,2.865-1.692,2.983-2.06,5.521C160.725,494.161,214.657,525.8,224.641,517.434Z" transform="translate(-148.091 -421.003)"/><path class="f" d="M191.29,469.349a162.94,162.94,0,0,0,17.845,37.339c10.706,16.583,37.291,36.273,46.4,43.981" transform="translate(-175.965 -452.198)"/></g><path class="g" d="M227.087,505.616c.288-8.461-9.491-42.513-21.347-49.953-6.839-4.291-10.833.236-15.543-4.186-7.067-6.635-3.391-13.893-11.649-24.774-1.239-1.633-5.338-5.372-10.373-5.684-9.924-.614-22.474,16.067-19.69,28.093,2.587,11.175,17.674,15.133,16.4,25.027-.369,2.865-1.692,2.983-2.06,5.521-2.1,14.5,51.83,46.141,61.814,37.775.112-.094.216-.2.318-.3q1.386,1.226,2.7,2.34l-2.1-3.112C226.784,514.406,226.9,511.158,227.087,505.616Z" transform="translate(-148.091 -421.003)"/></g><g transform="translate(316.714 347.144)"><path class="h" d="M701.041,593.505c1.17,1.415,3.411,1.506,7.892,1.687,5.656.229,19.491.789,24.516-7.107,2.9-4.554-.11-7.245,2.867-10.375,4.467-4.7,12.252.3,19.563-5.174,1.1-.822,4.265-3.194,4.5-6.559.453-6.634-10.646-15.1-18.7-13.288-7.484,1.681-10.2,11.753-16.805,10.859-1.914-.259-1.987-1.144-3.682-1.4C711.5,560.679,695.49,586.793,701.041,593.505Z" transform="translate(-699.664 -552.442)"/><path class="i" d="M748.507,581.418a108.86,108.86,0,0,0-49.275,32.8" transform="translate(-699.232 -571.139)"/><path class="j" d="M708.5,595.192c5.656.229,19.491.789,24.516-7.107,2.9-4.554-.111-7.245,2.867-10.375,4.467-4.7,12.252.3,19.563-5.174,1.1-.822,4.265-3.194,4.5-6.559.453-6.634-10.646-15.1-18.7-13.288-7.484,1.681-10.2,11.753-16.805,10.859-1.914-.259-1.987-1.144-3.682-1.4-9.688-1.468-25.7,24.646-20.147,31.358.063.076.13.146.2.214q-.826.922-1.576,1.8l2.09-1.391C702.625,594.952,704.8,595.042,708.5,595.192Z" transform="translate(-699.232 -552.442)"/></g><g transform="translate(124.738 371.539)"><path class="k" d="M237.308,671.957c-.844.78-15.977.411-23.223.055-17.22-.845-25.628-2.037-28.857-7.7-2.846-4.988.393-7.048-2.656-10.831-4.294-5.328-13.263-1.161-20.441-7.694-.921-.838-3.862-4.932-4.035-8.7-.413-8.979,14.5-18.2,24.147-15.36,8.958,2.636,10.363,15.024,18.218,15.01,3.886-.008,4.643-2.4,8.113-2.347C218.943,634.566,244.419,665.386,237.308,671.957Z" transform="translate(-158.088 -621.208)"/><path class="l" d="M211.754,662.9c.795.373,2.062.979,3.6,1.761,17,8.662,21.883,16.106,33.441,21.569a56.04,56.04,0,0,0,17.77,4.949" transform="translate(-192.716 -648.109)"/><path class="m" d="M208.575,634.394c-3.47-.057-4.226,2.339-8.113,2.347-7.855.014-9.26-12.374-18.218-15.01-9.647-2.838-24.56,6.381-24.147,15.36.173,3.765,3.114,7.859,4.035,8.7,7.178,6.533,16.147,2.366,20.441,7.694,3.049,3.783-.19,5.842,2.656,10.831,3.23,5.662,11.638,6.854,28.857,7.7,7.246.356,22.379.725,23.223-.055C244.419,665.386,218.943,634.566,208.575,634.394Z" transform="translate(-158.088 -621.208)"/></g><g transform="translate(147.551 274.488)"><g transform="translate(0 0)"><path class="n" d="M310.058,347.641a74.093,74.093,0,1,0,74.093,74.093A74.094,74.094,0,0,0,310.058,347.641Zm21.133,35.614a12.266,12.266,0,1,1,0,17.347A12.266,12.266,0,0,1,331.191,383.255Zm-75.551,38.48A12.266,12.266,0,1,1,267.905,434,12.266,12.266,0,0,1,255.639,421.734Zm33.285,38.48a12.266,12.266,0,1,1,0-17.347A12.266,12.266,0,0,1,288.925,460.214Zm0-59.613a12.266,12.266,0,1,1,0-17.347A12.266,12.266,0,0,1,288.925,400.6Zm21.133,75.551a12.266,12.266,0,1,1,12.266-12.266A12.266,12.266,0,0,1,310.058,476.153Zm0-84.3a12.266,12.266,0,1,1,12.266-12.266A12.266,12.266,0,0,1,310.058,391.848Zm38.479,68.366a12.266,12.266,0,1,1,0-17.347A12.266,12.266,0,0,1,348.537,460.214ZM352.21,434a12.266,12.266,0,1,1,12.266-12.266A12.266,12.266,0,0,1,352.21,434Z" transform="translate(-231.15 -347.641)"/><path class="o" d="M310.058,347.641a74.093,74.093,0,1,0,74.093,74.093A74.094,74.094,0,0,0,310.058,347.641Zm21.133,35.614a12.266,12.266,0,1,1,0,17.347A12.266,12.266,0,0,1,331.191,383.255Zm-75.551,38.48A12.266,12.266,0,1,1,267.905,434,12.266,12.266,0,0,1,255.639,421.734Zm33.285,38.48a12.266,12.266,0,1,1,0-17.347A12.266,12.266,0,0,1,288.925,460.214Zm0-59.613a12.266,12.266,0,1,1,0-17.347A12.266,12.266,0,0,1,288.925,400.6Zm21.133,75.551a12.266,12.266,0,1,1,12.266-12.266A12.266,12.266,0,0,1,310.058,476.153Zm0-84.3a12.266,12.266,0,1,1,12.266-12.266A12.266,12.266,0,0,1,310.058,391.848Zm38.479,68.366a12.266,12.266,0,1,1,0-17.347A12.266,12.266,0,0,1,348.537,460.214ZM352.21,434a12.266,12.266,0,1,1,12.266-12.266A12.266,12.266,0,0,1,352.21,434Z" transform="translate(-231.15 -347.641)"/><circle class="p" cx="43.557" cy="43.557" r="43.557" transform="translate(30.536 30.536)"/><circle class="q" cx="43.557" cy="43.557" r="43.557" transform="translate(30.536 30.536)"/><path class="r" d="M296.487,347.641a74.093,74.093,0,1,0,74.094,74.093A74.093,74.093,0,0,0,296.487,347.641Zm21.133,35.614a12.266,12.266,0,1,1,0,17.347A12.266,12.266,0,0,1,317.621,383.255Zm-75.552,38.48A12.266,12.266,0,1,1,254.335,434,12.266,12.266,0,0,1,242.069,421.734Zm33.286,38.48a12.266,12.266,0,1,1,0-17.347A12.266,12.266,0,0,1,275.355,460.214Zm0-59.613a12.266,12.266,0,1,1,0-17.347A12.266,12.266,0,0,1,275.355,400.6Zm21.133,75.551a12.266,12.266,0,1,1,12.266-12.266A12.266,12.266,0,0,1,296.487,476.153Zm0-84.3a12.266,12.266,0,1,1,12.266-12.266A12.266,12.266,0,0,1,296.487,391.848Zm38.48,68.366a12.266,12.266,0,1,1,0-17.347A12.266,12.266,0,0,1,334.967,460.214ZM338.64,434a12.266,12.266,0,1,1,12.266-12.266A12.266,12.266,0,0,1,338.64,434Z" transform="translate(-222.394 -347.641)"/><circle class="s" cx="6.949" cy="6.949" r="6.949" transform="translate(67.144 67.144)"/><path class="t" d="M301.3,347.641c-.806,0-1.608.017-2.407.043-.8-.026-1.6-.043-2.407-.043a74.093,74.093,0,0,0,0,148.187c.806,0,1.608-.017,2.407-.043.8.026,1.6.043,2.407.043a74.093,74.093,0,1,0,0-148.187Zm33.665,35.614a12.266,12.266,0,0,1,0,17.347c-.083.083-.168.16-.253.24A43.77,43.77,0,0,0,320.663,385.5a12.256,12.256,0,0,1,8.038-5.6A12.21,12.21,0,0,1,334.967,383.255Zm-26.214-3.672c0,.116-.006.231-.009.347a43.8,43.8,0,0,0-19.682-1.118,12.269,12.269,0,0,1,9.833-11.257A12.269,12.269,0,0,1,308.754,379.582Zm-54.334,53.472a12.27,12.27,0,0,1,0-22.639,43.774,43.774,0,0,0,0,22.639Zm20.935-49.8c.083.083.16.169.24.253a43.772,43.772,0,0,0-15.144,13.756,12.266,12.266,0,0,1,8.638-17.363A12.207,12.207,0,0,1,275.355,383.255Zm-12.533,76.96a12.269,12.269,0,0,1-2.372-14.009,43.771,43.771,0,0,0,15.144,13.756c-.08.084-.157.17-.24.253a12.208,12.208,0,0,1-6.266,3.354A12.209,12.209,0,0,1,262.822,460.214Zm26.24,4.444a43.807,43.807,0,0,0,19.682-1.119c0,.116.009.231.009.347a12.269,12.269,0,0,1-9.859,12.028A12.269,12.269,0,0,1,289.062,464.659Zm33.372-4.444a12.3,12.3,0,0,1-1.772-2.244,43.77,43.77,0,0,0,14.052-15.343c.084.08.17.158.253.24a12.266,12.266,0,0,1-6.267,20.7A12.208,12.208,0,0,1,322.435,460.214Zm16.139-27.225a43.792,43.792,0,0,0,0-22.508,12.162,12.162,0,0,1,2.473-.775,12.267,12.267,0,0,1,0,24.057A12.178,12.178,0,0,1,338.574,432.989Z" transform="translate(-222.394 -347.641)"/><path class="u" d="M301.3,347.641c-.806,0-1.608.017-2.407.043-.8-.026-1.6-.043-2.407-.043a74.093,74.093,0,0,0,0,148.187c.806,0,1.608-.017,2.407-.043.8.026,1.6.043,2.407.043a74.093,74.093,0,1,0,0-148.187Zm33.665,35.614a12.266,12.266,0,0,1,0,17.347c-.083.083-.168.16-.253.24A43.77,43.77,0,0,0,320.663,385.5a12.256,12.256,0,0,1,8.038-5.6A12.21,12.21,0,0,1,334.967,383.255Zm-26.214-3.672c0,.116-.006.231-.009.347a43.8,43.8,0,0,0-19.682-1.118,12.269,12.269,0,0,1,9.833-11.257A12.269,12.269,0,0,1,308.754,379.582Zm-54.334,53.472a12.27,12.27,0,0,1,0-22.639,43.774,43.774,0,0,0,0,22.639Zm20.935-49.8c.083.083.16.169.24.253a43.772,43.772,0,0,0-15.144,13.756,12.266,12.266,0,0,1,8.638-17.363A12.207,12.207,0,0,1,275.355,383.255Zm-12.533,76.96a12.269,12.269,0,0,1-2.372-14.009,43.771,43.771,0,0,0,15.144,13.756c-.08.084-.157.17-.24.253a12.208,12.208,0,0,1-6.266,3.354A12.209,12.209,0,0,1,262.822,460.214Zm26.24,4.444a43.807,43.807,0,0,0,19.682-1.119c0,.116.009.231.009.347a12.269,12.269,0,0,1-9.859,12.028A12.269,12.269,0,0,1,289.062,464.659Zm33.372-4.444a12.3,12.3,0,0,1-1.772-2.244,43.77,43.77,0,0,0,14.052-15.343c.084.08.17.158.253.24a12.266,12.266,0,0,1-6.267,20.7A12.208,12.208,0,0,1,322.435,460.214Zm16.139-27.225a43.792,43.792,0,0,0,0-22.508,12.162,12.162,0,0,1,2.473-.775,12.267,12.267,0,0,1,0,24.057A12.178,12.178,0,0,1,338.574,432.989Z" transform="translate(-222.394 -347.641)"/><path class="v" d="M301.3,347.641c-.806,0-1.608.017-2.407.043-.8-.026-1.6-.043-2.407-.043a74.093,74.093,0,0,0,0,148.187c.806,0,1.608-.017,2.407-.043.8.026,1.6.043,2.407.043a74.093,74.093,0,1,0,0-148.187Zm33.665,35.614a12.266,12.266,0,0,1,0,17.347c-.083.083-.168.16-.253.24A43.77,43.77,0,0,0,320.663,385.5a12.256,12.256,0,0,1,8.038-5.6A12.21,12.21,0,0,1,334.967,383.255Zm-26.214-3.672c0,.116-.006.231-.009.347a43.8,43.8,0,0,0-19.682-1.118,12.269,12.269,0,0,1,9.833-11.257A12.269,12.269,0,0,1,308.754,379.582Zm-54.334,53.472a12.27,12.27,0,0,1,0-22.639,43.774,43.774,0,0,0,0,22.639Zm20.935-49.8c.083.083.16.169.24.253a43.772,43.772,0,0,0-15.144,13.756,12.266,12.266,0,0,1,8.638-17.363A12.207,12.207,0,0,1,275.355,383.255Zm-12.533,76.96a12.269,12.269,0,0,1-2.372-14.009,43.771,43.771,0,0,0,15.144,13.756c-.08.084-.157.17-.24.253a12.208,12.208,0,0,1-6.266,3.354A12.209,12.209,0,0,1,262.822,460.214Zm26.24,4.444a43.807,43.807,0,0,0,19.682-1.119c0,.116.009.231.009.347a12.269,12.269,0,0,1-9.859,12.028A12.269,12.269,0,0,1,289.062,464.659Zm33.372-4.444a12.3,12.3,0,0,1-1.772-2.244,43.77,43.77,0,0,0,14.052-15.343c.084.08.17.158.253.24a12.266,12.266,0,0,1-6.267,20.7A12.208,12.208,0,0,1,322.435,460.214Zm16.139-27.225a43.792,43.792,0,0,0,0-22.508,12.162,12.162,0,0,1,2.473-.775,12.267,12.267,0,0,1,0,24.057A12.178,12.178,0,0,1,338.574,432.989Z" transform="translate(-222.394 -347.641)"/></g><g transform="translate(51.698 60.775)"><path class="w" d="M505.313,518.955H376.662a3.388,3.388,0,0,0-3.388,3.39v80.631a3.388,3.388,0,0,0,3.388,3.391H505.313a3.388,3.388,0,0,0,3.388-3.391V522.345A3.388,3.388,0,0,0,505.313,518.955ZM387.551,599.388a2.313,2.313,0,0,1-2.31,2.31h-6.424a2.311,2.311,0,0,1-2.31-2.31v-2.342a2.309,2.309,0,0,1,2.31-2.31h6.424a2.311,2.311,0,0,1,2.31,2.31Zm0-70.853a2.311,2.311,0,0,1-2.31,2.31h-6.424a2.309,2.309,0,0,1-2.31-2.31v-2.342a2.311,2.311,0,0,1,2.31-2.31h6.424a2.312,2.312,0,0,1,2.31,2.31Zm23.06,70.853a2.311,2.311,0,0,1-2.31,2.31h-6.421a2.313,2.313,0,0,1-2.313-2.31v-2.342a2.311,2.311,0,0,1,2.313-2.31H408.3a2.309,2.309,0,0,1,2.31,2.31Zm0-70.853a2.309,2.309,0,0,1-2.31,2.31h-6.421a2.311,2.311,0,0,1-2.313-2.31v-2.342a2.313,2.313,0,0,1,2.313-2.31H408.3a2.311,2.311,0,0,1,2.31,2.31Zm23.063,70.853a2.313,2.313,0,0,1-2.312,2.31h-6.421a2.311,2.311,0,0,1-2.31-2.31v-2.342a2.309,2.309,0,0,1,2.31-2.31h6.421a2.311,2.311,0,0,1,2.312,2.31Zm0-70.853a2.311,2.311,0,0,1-2.312,2.31h-6.421a2.309,2.309,0,0,1-2.31-2.31v-2.342a2.311,2.311,0,0,1,2.31-2.31h6.421a2.313,2.313,0,0,1,2.312,2.31Zm23.06,70.853a2.311,2.311,0,0,1-2.31,2.31H448a2.313,2.313,0,0,1-2.313-2.31v-2.342a2.311,2.311,0,0,1,2.313-2.31h6.421a2.309,2.309,0,0,1,2.31,2.31Zm0-70.853a2.309,2.309,0,0,1-2.31,2.31H448a2.311,2.311,0,0,1-2.313-2.31v-2.342a2.313,2.313,0,0,1,2.313-2.31h6.421a2.311,2.311,0,0,1,2.31,2.31ZM479.8,599.388a2.313,2.313,0,0,1-2.313,2.31h-6.421a2.311,2.311,0,0,1-2.31-2.31v-2.342a2.309,2.309,0,0,1,2.31-2.31h6.421a2.312,2.312,0,0,1,2.313,2.31Zm0-70.853a2.311,2.311,0,0,1-2.313,2.31h-6.421a2.309,2.309,0,0,1-2.31-2.31v-2.342a2.311,2.311,0,0,1,2.31-2.31h6.421a2.313,2.313,0,0,1,2.313,2.31Zm23.06,70.853a2.311,2.311,0,0,1-2.31,2.31h-6.423a2.313,2.313,0,0,1-2.31-2.31v-2.342a2.311,2.311,0,0,1,2.31-2.31h6.423a2.309,2.309,0,0,1,2.31,2.31Zm0-70.853a2.309,2.309,0,0,1-2.31,2.31h-6.423a2.311,2.311,0,0,1-2.31-2.31v-2.342a2.313,2.313,0,0,1,2.31-2.31h6.423a2.311,2.311,0,0,1,2.31,2.31Z" transform="translate(-371.446 -518.955)"/><path class="x" d="M502.773,518.955H371.512a3.388,3.388,0,0,0-3.388,3.39v80.631a3.388,3.388,0,0,0,3.388,3.391H502.773a3.388,3.388,0,0,0,3.388-3.391V522.345A3.388,3.388,0,0,0,502.773,518.955ZM385.011,599.388a2.313,2.313,0,0,1-2.31,2.31h-6.424a2.311,2.311,0,0,1-2.31-2.31v-2.342a2.309,2.309,0,0,1,2.31-2.31H382.7a2.311,2.311,0,0,1,2.31,2.31Zm0-70.853a2.311,2.311,0,0,1-2.31,2.31h-6.424a2.309,2.309,0,0,1-2.31-2.31v-2.342a2.311,2.311,0,0,1,2.31-2.31H382.7a2.313,2.313,0,0,1,2.31,2.31Zm23.06,70.853a2.311,2.311,0,0,1-2.31,2.31h-6.421a2.313,2.313,0,0,1-2.313-2.31v-2.342a2.311,2.311,0,0,1,2.313-2.31h6.421a2.309,2.309,0,0,1,2.31,2.31Zm0-70.853a2.309,2.309,0,0,1-2.31,2.31h-6.421a2.311,2.311,0,0,1-2.313-2.31v-2.342a2.313,2.313,0,0,1,2.313-2.31h6.421a2.311,2.311,0,0,1,2.31,2.31Zm23.063,70.853a2.313,2.313,0,0,1-2.312,2.31H422.4a2.311,2.311,0,0,1-2.31-2.31v-2.342a2.309,2.309,0,0,1,2.31-2.31h6.421a2.311,2.311,0,0,1,2.312,2.31Zm0-70.853a2.311,2.311,0,0,1-2.312,2.31H422.4a2.309,2.309,0,0,1-2.31-2.31v-2.342a2.311,2.311,0,0,1,2.31-2.31h6.421a2.313,2.313,0,0,1,2.312,2.31Zm23.06,70.853a2.311,2.311,0,0,1-2.31,2.31h-6.421a2.313,2.313,0,0,1-2.312-2.31v-2.342a2.311,2.311,0,0,1,2.312-2.31h6.421a2.309,2.309,0,0,1,2.31,2.31Zm0-70.853a2.309,2.309,0,0,1-2.31,2.31h-6.421a2.311,2.311,0,0,1-2.312-2.31v-2.342a2.313,2.313,0,0,1,2.312-2.31h6.421a2.311,2.311,0,0,1,2.31,2.31Zm23.063,70.853a2.313,2.313,0,0,1-2.313,2.31h-6.421a2.311,2.311,0,0,1-2.31-2.31v-2.342a2.309,2.309,0,0,1,2.31-2.31h6.421a2.311,2.311,0,0,1,2.313,2.31Zm0-70.853a2.311,2.311,0,0,1-2.313,2.31h-6.421a2.309,2.309,0,0,1-2.31-2.31v-2.342a2.311,2.311,0,0,1,2.31-2.31h6.421a2.313,2.313,0,0,1,2.313,2.31Zm23.06,70.853a2.311,2.311,0,0,1-2.31,2.31h-6.424a2.313,2.313,0,0,1-2.31-2.31v-2.342a2.311,2.311,0,0,1,2.31-2.31h6.424a2.309,2.309,0,0,1,2.31,2.31Zm0-70.853a2.309,2.309,0,0,1-2.31,2.31h-6.424a2.311,2.311,0,0,1-2.31-2.31v-2.342a2.312,2.312,0,0,1,2.31-2.31h6.424a2.311,2.311,0,0,1,2.31,2.31Z" transform="translate(-368.123 -518.955)"/><path class="y" d="M502.773,518.955H371.512a3.388,3.388,0,0,0-3.388,3.39v80.631a3.388,3.388,0,0,0,3.388,3.391H502.773a3.388,3.388,0,0,0,3.388-3.391V522.345A3.388,3.388,0,0,0,502.773,518.955ZM385.011,599.388a2.313,2.313,0,0,1-2.31,2.31h-6.424a2.311,2.311,0,0,1-2.31-2.31v-2.342a2.309,2.309,0,0,1,2.31-2.31H382.7a2.311,2.311,0,0,1,2.31,2.31Zm0-70.853a2.311,2.311,0,0,1-2.31,2.31h-6.424a2.309,2.309,0,0,1-2.31-2.31v-2.342a2.311,2.311,0,0,1,2.31-2.31H382.7a2.313,2.313,0,0,1,2.31,2.31Zm23.06,70.853a2.311,2.311,0,0,1-2.31,2.31h-6.421a2.313,2.313,0,0,1-2.313-2.31v-2.342a2.311,2.311,0,0,1,2.313-2.31h6.421a2.309,2.309,0,0,1,2.31,2.31Zm0-70.853a2.309,2.309,0,0,1-2.31,2.31h-6.421a2.311,2.311,0,0,1-2.313-2.31v-2.342a2.313,2.313,0,0,1,2.313-2.31h6.421a2.311,2.311,0,0,1,2.31,2.31Zm23.063,70.853a2.313,2.313,0,0,1-2.312,2.31H422.4a2.311,2.311,0,0,1-2.31-2.31v-2.342a2.309,2.309,0,0,1,2.31-2.31h6.421a2.311,2.311,0,0,1,2.312,2.31Zm0-70.853a2.311,2.311,0,0,1-2.312,2.31H422.4a2.309,2.309,0,0,1-2.31-2.31v-2.342a2.311,2.311,0,0,1,2.31-2.31h6.421a2.313,2.313,0,0,1,2.312,2.31Zm23.06,70.853a2.311,2.311,0,0,1-2.31,2.31h-6.421a2.313,2.313,0,0,1-2.312-2.31v-2.342a2.311,2.311,0,0,1,2.312-2.31h6.421a2.309,2.309,0,0,1,2.31,2.31Zm0-70.853a2.309,2.309,0,0,1-2.31,2.31h-6.421a2.311,2.311,0,0,1-2.312-2.31v-2.342a2.313,2.313,0,0,1,2.312-2.31h6.421a2.311,2.311,0,0,1,2.31,2.31Zm23.063,70.853a2.313,2.313,0,0,1-2.313,2.31h-6.421a2.311,2.311,0,0,1-2.31-2.31v-2.342a2.309,2.309,0,0,1,2.31-2.31h6.421a2.311,2.311,0,0,1,2.313,2.31Zm0-70.853a2.311,2.311,0,0,1-2.313,2.31h-6.421a2.309,2.309,0,0,1-2.31-2.31v-2.342a2.311,2.311,0,0,1,2.31-2.31h6.421a2.313,2.313,0,0,1,2.313,2.31Zm23.06,70.853a2.311,2.311,0,0,1-2.31,2.31h-6.424a2.313,2.313,0,0,1-2.31-2.31v-2.342a2.311,2.311,0,0,1,2.31-2.31h6.424a2.309,2.309,0,0,1,2.31,2.31Zm0-70.853a2.309,2.309,0,0,1-2.31,2.31h-6.424a2.311,2.311,0,0,1-2.31-2.31v-2.342a2.312,2.312,0,0,1,2.31-2.31h6.424a2.311,2.311,0,0,1,2.31,2.31Z" transform="translate(-368.123 -518.955)"/><path class="z" d="M506.161,602.976V522.345a3.388,3.388,0,0,0-3.388-3.39H371.512a3.388,3.388,0,0,0-3.388,3.39v80.631a3.388,3.388,0,0,0,3.388,3.391H502.773A3.388,3.388,0,0,0,506.161,602.976Zm-121.15-74.7a2.311,2.311,0,0,1-2.31,2.31h-6.424a2.309,2.309,0,0,1-2.31-2.31v-2.341a2.311,2.311,0,0,1,2.31-2.31H382.7a2.313,2.313,0,0,1,2.31,2.31Zm0,70.853a2.313,2.313,0,0,1-2.31,2.31h-6.424a2.311,2.311,0,0,1-2.31-2.31v-2.341a2.309,2.309,0,0,1,2.31-2.31H382.7a2.311,2.311,0,0,1,2.31,2.31Zm23.06-70.853a2.309,2.309,0,0,1-2.31,2.31h-6.421a2.312,2.312,0,0,1-2.313-2.31v-2.341a2.313,2.313,0,0,1,2.313-2.31h6.421a2.311,2.311,0,0,1,2.31,2.31Zm0,70.853a2.311,2.311,0,0,1-2.31,2.31h-6.421a2.313,2.313,0,0,1-2.313-2.31v-2.341a2.311,2.311,0,0,1,2.313-2.31h6.421a2.309,2.309,0,0,1,2.31,2.31Zm23.063-70.853a2.311,2.311,0,0,1-2.312,2.31H422.4a2.309,2.309,0,0,1-2.31-2.31v-2.341a2.311,2.311,0,0,1,2.31-2.31h6.421a2.313,2.313,0,0,1,2.312,2.31Zm0,70.853a2.313,2.313,0,0,1-2.312,2.31H422.4a2.311,2.311,0,0,1-2.31-2.31v-2.341a2.309,2.309,0,0,1,2.31-2.31h6.421a2.311,2.311,0,0,1,2.312,2.31Zm23.06-70.853a2.309,2.309,0,0,1-2.31,2.31h-6.421a2.311,2.311,0,0,1-2.312-2.31v-2.341a2.313,2.313,0,0,1,2.312-2.31h6.421a2.311,2.311,0,0,1,2.31,2.31Zm0,70.853a2.311,2.311,0,0,1-2.31,2.31h-6.421a2.313,2.313,0,0,1-2.312-2.31v-2.341a2.311,2.311,0,0,1,2.312-2.31h6.421a2.309,2.309,0,0,1,2.31,2.31Zm23.063-70.853a2.312,2.312,0,0,1-2.313,2.31h-6.421a2.309,2.309,0,0,1-2.31-2.31v-2.341a2.311,2.311,0,0,1,2.31-2.31h6.421a2.313,2.313,0,0,1,2.313,2.31Zm0,70.853a2.313,2.313,0,0,1-2.313,2.31h-6.421a2.311,2.311,0,0,1-2.31-2.31v-2.341a2.309,2.309,0,0,1,2.31-2.31h6.421a2.311,2.311,0,0,1,2.313,2.31Zm23.06-70.853a2.309,2.309,0,0,1-2.31,2.31h-6.424a2.311,2.311,0,0,1-2.31-2.31v-2.341a2.313,2.313,0,0,1,2.31-2.31h6.424a2.311,2.311,0,0,1,2.31,2.31Zm0,70.853a2.311,2.311,0,0,1-2.31,2.31h-6.424a2.313,2.313,0,0,1-2.31-2.31v-2.341a2.311,2.311,0,0,1,2.31-2.31h6.424a2.309,2.309,0,0,1,2.31,2.31Z" transform="translate(-368.123 -518.955)"/><g transform="translate(0 16.883)"><path class="aa" d="M726.845,566.546v53.646h-14.1a2.609,2.609,0,0,1-2.609-2.609V569.155a2.609,2.609,0,0,1,2.609-2.609Z" transform="translate(-588.806 -566.545)"/><rect class="ab" width="81.277" height="53.645" rx="7.353" transform="translate(28.381)"/><path class="ac" d="M384.825,569.155v48.428a2.609,2.609,0,0,1-2.609,2.609h-14.1V566.546h14.1A2.609,2.609,0,0,1,384.825,569.155Z" transform="translate(-368.12 -566.545)"/></g><g class="ad" transform="translate(46.929 21.603)"><path class="ae" d="M522.647,579.85a22.064,22.064,0,1,0,22.236,22.066A22.156,22.156,0,0,0,522.647,579.85Z" transform="translate(-500.404 -579.85)"/></g><g class="af" transform="translate(55.309 29.995)"><path class="ag" d="M537.738,603.506a13.71,13.71,0,1,0,13.708,13.713A13.713,13.713,0,0,0,537.738,603.506Z" transform="translate(-524.026 -603.506)"/></g><g transform="translate(55.309 29.995)"><path class="ah" d="M537.738,603.506a13.71,13.71,0,1,0,13.708,13.713A13.713,13.713,0,0,0,537.738,603.506Zm1.644,17.256-6.139,3.544V610.123l6.139,3.548,6.139,3.543Z" transform="translate(-524.026 -603.506)"/></g></g></g><g transform="translate(285.147 335.264)"><path class="ai" d="M659,518.955H610.592q-.128,1.054-.206,2.118c-.089,1.2-.135,2.409-.135,3.626,0,.121,0,.245,0,.365q.011,1.767.152,3.5A48.274,48.274,0,0,0,658.552,573c1.295,0,2.572-.05,3.839-.149v-50.5A3.386,3.386,0,0,0,659,518.955Zm-36.558,6.978a2.31,2.31,0,0,1,2.309-2.31h6.421a2.313,2.313,0,0,1,2.313,2.31v2.341a2.31,2.31,0,0,1-2.313,2.31h-6.421a2.307,2.307,0,0,1-2.309-2.31Z" transform="translate(-610.251 -518.955)"/><path class="aj" d="M673.765,518.955H633.45c-.085.678-.156,1.366-.206,2.054-.074,1.011-.114,2.04-.114,3.076a40.96,40.96,0,0,0,40.982,40.978q1.538,0,3.04-.11V522.347A3.386,3.386,0,0,0,673.765,518.955Zm-25.514,9.32a2.31,2.31,0,0,1-2.313,2.31h-6.421a2.308,2.308,0,0,1-2.31-2.31v-2.341a2.31,2.31,0,0,1,2.31-2.31h6.421a2.313,2.313,0,0,1,2.313,2.31Z" transform="translate(-625.014 -518.955)"/></g></g></svg>