<svg xmlns="http://www.w3.org/2000/svg" width="14.146" height="15.415" viewBox="0 0 14.146 15.415"><defs><style>.a{fill:#969698;stroke:#666;stroke-width:0.188px;}</style></defs><path class="a" d="M21.458,7.269V19.958a1.27,1.27,0,0,1-1.269,1.269H17.334a1.27,1.27,0,0,1-1.269-1.269V7.269A1.27,1.27,0,0,1,17.334,6h2.855A1.27,1.27,0,0,1,21.458,7.269ZM11.624,6H8.769A1.27,1.27,0,0,0,7.5,7.269V19.958a1.27,1.27,0,0,0,1.269,1.269h2.855a1.27,1.27,0,0,0,1.269-1.269V7.269A1.27,1.27,0,0,0,11.624,6Z" transform="translate(-7.406 -5.906)"/></svg>